<?xml version="1.0" encoding="UTF-8" standalone="no"?>
<svg width="735px" height="229px" viewBox="0 0 735 229" version="1.1" xmlns="http://www.w3.org/2000/svg" xmlns:xlink="http://www.w3.org/1999/xlink" xmlns:sketch="http://www.bohemiancoding.com/sketch/ns">
    <!-- Generator: Sketch 3.0.4 (8054) - http://www.bohemiancoding.com/sketch -->
    <title>Slice 2</title>
    <desc>Created with Sketch.</desc>
    <defs></defs>
    <g id="Page-1" stroke="none" stroke-width="1" fill="none" fill-rule="evenodd" sketch:type="MSPage">
        <g id="lintci-logo" sketch:type="MSLayerGroup">
            <g id="Icon" transform="translate(0.000000, 18.000000)" sketch:type="MSShapeGroup">
                <g id="Wreath" fill="#375D81">
                    <path d="M155.441342,169.405596 C163.381034,168.287807 166.721363,160.499034 165.666156,145.954265 C158.619131,150.631627 149.2583,159.288387 155.441342,169.405596" id="Fill-4"></path>
                    <path d="M119.261397,23.4382517 C127.456198,25.5020629 140.141713,26.5963101 143.418156,15.1925978 C137.239895,10.0666382 129.255004,12.8458517 119.261397,23.4382517" id="Fill-5"></path>
                    <path d="M136.040401,10.9939146 C133.694,-0.638238202 120.963287,-0.57938427 112.628979,0.813492135 C121.733397,12.1814562 129.467958,15.6002157 136.040401,10.9939146" id="Fill-6"></path>
                    <path d="M13.3800042,98.0598067 C25.0494262,96.108036 25.4262236,83.3410921 24.325384,74.9380584 C12.6872532,83.6763416 9.01532489,91.3125303 13.3800042,98.0598067" id="Fill-7"></path>
                    <path d="M156.463954,19.3978202 C158.044591,7.63662472 145.996198,3.5094382 137.666671,2.0864809 C142.55765,15.8190652 148.749819,21.5902382 156.463954,19.3978202" id="Fill-8"></path>
                    <path d="M134.042983,177.221398 C141.936173,178.628661 147.520772,172.265025 151.017992,158.110872 C142.872734,160.363016 131.295447,165.677744 134.042983,177.221398" id="Fill-9"></path>
                    <path d="M19.3700844,57.5940225 C30.2146371,62.3376494 37.4676624,51.8407236 41.110038,44.193636 C26.6035527,45.1566607 19.3766034,49.5510876 19.3700844,57.5940225" id="Fill-10"></path>
                    <path d="M30.7009536,59.1233528 C16.7876962,63.3516809 10.7380759,69.2719506 12.5447046,77.1082427 C24.1776203,79.2684 28.8769409,67.3982157 30.7009536,59.1233528" id="Fill-11"></path>
                    <path d="M71.9557131,177.221398 C74.7032489,165.677744 63.1255274,160.363016 54.9798354,158.110872 C58.4779241,172.265025 64.0625232,178.628661 71.9557131,177.221398" id="Fill-12"></path>
                    <path d="M50.557789,169.405596 C56.7403966,159.288387 47.3795654,150.631627 40.3325401,145.954265 C39.2773333,160.499034 42.6167932,168.287807 50.557789,169.405596" id="Fill-13"></path>
                    <path d="M185.14489,49.2167101 C192.578274,39.983182 184.410852,30.185964 178.025722,24.6362562 C175.106954,38.9220674 177.415544,47.0774787 185.14489,49.2167101" id="Fill-14"></path>
                    <path d="M186.628612,57.5940225 C186.622093,49.5510876 179.394274,45.1566607 164.887789,44.193636 C168.531034,51.8407236 175.784059,62.3376494 186.628612,57.5940225" id="Fill-15"></path>
                    <path d="M175.297743,59.1233528 C177.121755,67.3982157 181.821076,79.2684 193.453992,77.1082427 C195.26062,69.2719506 189.211,63.3516809 175.297743,59.1233528" id="Fill-16"></path>
                    <path d="M172.56281,32.6229528 C177.605899,21.8866876 167.358485,14.307609 159.843831,10.4328404 C160.379692,25.0055101 164.549236,32.3801258 172.56281,32.6229528" id="Fill-17"></path>
                    <path d="M175.093046,130.998827 C169.522354,137.372054 162.764772,148.196382 171.38635,156.323456 C178.751502,153.146652 179.927962,144.751029 175.093046,130.998827" id="Fill-18"></path>
                    <path d="M195.998135,110.873398 C207.488502,108.046665 206.907878,95.2888764 205.179911,86.9922157 C194.229316,96.5840989 191.141055,104.476193 195.998135,110.873398" id="Fill-19"></path>
                    <path d="M182.914962,94.5686787 C181.196122,102.866211 180.626797,115.625744 192.119772,118.442449 C196.970768,112.037398 193.875118,104.150099 182.914962,94.5686787" id="Fill-20"></path>
                    <path d="M192.618692,98.0598067 C196.982502,91.3125303 193.311443,83.6763416 181.671574,74.9380584 C180.571603,83.3410921 180.94927,96.108036 192.618692,98.0598067" id="Fill-21"></path>
                    <path d="M162.063764,25.7880494 C157.899435,18.9160899 149.447785,18.9187056 136.548013,25.6424404 C143.616333,30.2857978 155.244903,35.4863056 162.063764,25.7880494" id="Fill-22"></path>
                    <path d="M151.696835,32.5540719 C157.041101,39.1186831 166.564907,47.5953933 175.981802,40.4095461 C174.076084,32.5972315 166.017312,30.0447146 151.696835,32.5540719" id="Fill-23"></path>
                    <path d="M195.926861,90.2252584 C207.175591,86.5466697 205.651886,73.8682247 203.313308,65.7241483 C193.103705,76.1051101 190.608671,84.2051551 195.926861,90.2252584" id="Fill-24"></path>
                    <path d="M193.897283,68.6106067 C203.219869,61.3031281 197.472295,49.9072629 192.503523,43.0527416 C186.439561,56.3057753 186.850257,64.7737663 193.897283,68.6106067" id="Fill-25"></path>
                    <path d="M183.781553,138.494638 C190.40354,133.96027 189.955468,125.494894 182.582494,112.92631 C178.332114,120.253407 173.767084,132.175906 183.781553,138.494638" id="Fill-26"></path>
                    <path d="M142.525489,177.229681 C150.277869,186.195097 161.329291,179.85413 167.898692,174.52458 C154.393523,169.128764 145.984464,169.974517 142.525489,177.229681" id="Fill-27"></path>
                    <path d="M72.084789,166.137676 C77.8123713,179.541551 84.3478734,184.916876 91.9107679,182.250139 C92.7656245,170.413524 80.4855907,167.040975 72.084789,166.137676" id="Fill-28"></path>
                    <path d="M63.4732068,177.229681 C60.0142321,169.974517 51.605173,169.128764 38.1000042,174.52458 C44.6702743,179.85413 55.720827,186.195097 63.4732068,177.229681" id="Fill-29"></path>
                    <path d="M58.0646203,185.068589 C65.4063038,189.264656 77.3330084,193.734067 83.5421266,183.632117 C78.9610169,177.030449 70.5263165,177.556647 58.0646203,185.068589" id="Fill-30"></path>
                    <path d="M19.2062405,156.302094 C23.8034304,163.413829 32.3476498,172.882337 42.4903249,166.773735 C41.4481561,158.799681 33.7144641,155.376562 19.2062405,156.302094" id="Fill-31"></path>
                    <path d="M27.5222954,151.65307 C28.6096624,143.684247 22.0480844,138.34031 7.80974684,135.401101 C10.3773586,143.475425 16.1336245,154.866494 27.5222954,151.65307" id="Fill-32"></path>
                    <path d="M16.1497046,132.548647 C18.7386118,124.936436 13.3213333,118.431115 -0.0925696203,112.808166 C0.885278481,121.22733 4.35859494,133.513416 16.1497046,132.548647" id="Fill-33"></path>
                    <path d="M102.999131,181.506836 C97.8812911,181.506836 93.7304346,184.30218 93.7304346,187.7532 C93.7304346,191.202476 97.8812911,193.999564 102.999131,193.999564 C108.116536,193.999564 112.266523,191.202476 112.266523,187.7532 C112.266523,184.30218 108.116536,181.506836 102.999131,181.506836" id="Fill-34"></path>
                    <path d="M9.99882278,110.873398 C14.8576414,104.476193 11.7698143,96.5840989 0.81878481,86.9922157 C-0.909181435,95.2888764 -1.49067511,108.046665 9.99882278,110.873398" id="Fill-35"></path>
                    <path d="M189.848992,132.548647 C201.640101,133.513416 205.114287,121.22733 206.091266,112.808166 C192.677363,118.431115 187.259215,124.936436 189.848992,132.548647" id="Fill-36"></path>
                    <path d="M163.507502,166.773735 C173.651046,172.882337 182.195266,163.413829 186.792456,156.302094 C172.283363,155.376562 164.55054,158.799681 163.507502,166.773735" id="Fill-37"></path>
                    <path d="M178.475532,151.65307 C189.865506,154.866494 195.621338,143.475425 198.189819,135.401101 C183.950612,138.34031 177.389034,143.684247 178.475532,151.65307" id="Fill-38"></path>
                    <path d="M13.8789241,118.442449 C25.3718987,115.625744 24.8025738,102.866211 23.082865,94.5686787 C12.1235781,104.150099 9.02705907,112.037398 13.8789241,118.442449" id="Fill-39"></path>
                    <path d="M133.913907,166.137676 C125.512236,167.040975 113.232203,170.413524 114.087059,182.250139 C121.651257,184.916876 128.185456,179.541551 133.913907,166.137676" id="Fill-40"></path>
                    <path d="M122.45657,183.632117 C128.666557,193.734067 140.592827,189.264656 147.934076,185.068589 C135.47238,177.556647 127.037679,177.030449 122.45657,183.632117" id="Fill-41"></path>
                    <path d="M93.3679789,0.813492135 C85.0354093,-0.57938427 72.303827,-0.638238202 69.9582954,10.9939146 C76.5307384,15.6002157 84.2652996,12.1814562 93.3679789,0.813492135" id="Fill-42"></path>
                    <path d="M68.3311561,2.0864809 C60.0024979,3.5094382 47.9532363,7.63662472 49.5347426,19.3978202 C57.2488776,21.5902382 63.4401772,15.8190652 68.3311561,2.0864809" id="Fill-43"></path>
                    <path d="M43.9340633,25.7880494 C50.7529241,35.4863056 62.3827975,30.2857978 69.4515527,25.6424404 C56.5504768,18.9187056 48.0992616,18.9160899 43.9340633,25.7880494" id="Fill-44"></path>
                    <path d="M86.7372996,23.4382517 C76.7428228,12.8458517 68.7588017,10.0666382 62.5805401,15.1925978 C65.8569831,26.5963101 78.5416287,25.5020629 86.7372996,23.4382517" id="Fill-45"></path>
                    <path d="M22.2171435,138.494638 C32.2316118,132.175906 27.6657131,120.253407 23.4162025,112.92631 C16.0427932,125.494894 15.5942869,133.96027 22.2171435,138.494638" id="Fill-46"></path>
                    <path d="M34.612346,156.323456 C43.2339241,148.196382 36.4754726,137.372054 30.9056498,130.998827 C26.069865,144.751029 27.2471941,153.146652 34.612346,156.323456" id="Fill-47"></path>
                    <path d="M10.0718354,90.2252584 C15.3900253,84.2051551 12.8941224,76.1051101 2.68538819,65.7241483 C0.347679325,73.8682247 -1.17689451,86.5466697 10.0718354,90.2252584" id="Fill-48"></path>
                    <path d="M12.1014135,68.6106067 C19.1475696,64.7737663 19.559135,56.3057753 13.495173,43.0527416 C8.52640084,49.9072629 2.778827,61.3031281 12.1014135,68.6106067" id="Fill-49"></path>
                    <path d="M27.9729747,24.6362562 C21.5878439,30.185964 13.4195527,39.983182 20.8538059,49.2167101 C28.5822827,47.0774787 30.8926118,38.9220674 27.9729747,24.6362562" id="Fill-50"></path>
                    <path d="M46.154865,10.4328404 C38.640211,14.307609 28.3923629,21.8866876 33.4358861,32.6229528 C41.4498945,32.3801258 45.618135,25.0055101 46.154865,10.4328404" id="Fill-51"></path>
                    <path d="M54.3018608,32.5540719 C39.981384,30.0447146 31.9217426,32.5972315 30.0168945,40.4095461 C39.433789,47.5953933 48.9575949,39.1186831 54.3018608,32.5540719" id="Fill-52"></path>
                </g>
                <g id="Circle-&amp;-Shadow" transform="translate(32.160338, 26.157303)">
                    <path d="M141.482886,70.9325034 C141.482886,110.069933 109.854932,141.796562 70.8387932,141.796562 C31.8230886,141.796562 0.195135021,110.069933 0.195135021,70.9325034 C0.195135021,31.7955101 31.8230886,0.0675730337 70.8387932,0.0675730337 C109.854932,0.0675730337 141.482886,31.7955101 141.482886,70.9325034" id="Fill-53" fill="#375D81"></path>
                    <path d="M72.4615865,141.670571 L39.0635105,108.168733 L58.3514557,84.6642157 C45.2417722,68.8159416 54.6547553,52.7858742 70.6254051,52.7858742 C74.2490928,52.7858742 78.2104641,53.6111371 82.3226414,55.4508674 L101.097759,32.5702022 L141.349899,72.8389348 C140.304253,110.471011 110.012692,140.768144 72.4615865,141.670571" id="Fill-54" fill="#183152"></path>
                </g>
                <path d="M116.392173,101.530445 C114.530785,107.164292 109.232586,111.24178 102.999565,111.24178 C95.2202405,111.24178 88.8916076,104.892966 88.8916076,97.0898067 C88.8916076,89.2870831 95.2202405,82.9382697 102.999565,82.9382697 C108.944013,82.9382697 114.037949,86.6473753 116.110987,91.877964 C114.575983,92.392391 113.468624,93.8432494 113.468624,95.5556809 L113.468624,97.7720764 C113.468624,99.5878292 114.713316,101.107133 116.392173,101.530445 L116.392173,101.530445 Z M102.999565,115.146193 C93.0581097,115.146193 84.998903,107.062279 84.998903,97.0898067 C84.998903,87.1173348 93.0581097,79.0334202 102.999565,79.0334202 C111.035304,79.0334202 117.841127,84.3158876 120.154932,91.6081079 L119.079734,91.6081079 C116.798523,84.8944 110.454245,80.0500674 102.999565,80.0500674 C93.6326498,80.0500674 86.0123882,87.6936674 86.0123882,97.0898067 C86.0123882,106.485946 93.6326498,114.129546 102.999565,114.129546 C110.454245,114.129546 116.798523,109.285213 119.079734,102.570634 L120.154932,102.570634 C117.841127,109.863726 111.035304,115.146193 102.999565,115.146193 L102.999565,115.146193 Z M77.8475738,67.3419775 L77.8475738,66.0519865 C77.8475738,65.7843101 78.0640042,65.5680764 78.3295443,65.5680764 L89.5800127,65.5680764 C89.8459873,65.5680764 90.0624177,65.7843101 90.0624177,66.0519865 L90.0624177,67.3419775 C90.0624177,67.609218 89.8459873,67.8250157 89.5800127,67.8250157 L78.3295443,67.8250157 C78.0640042,67.8250157 77.8475738,67.609218 77.8475738,67.3419775 L77.8475738,67.3419775 Z M98.4036793,65.0418787 C99.0699198,65.0418787 99.609692,65.5833348 99.609692,66.251218 C99.609692,66.9186652 99.0699198,67.4596854 98.4036793,67.4596854 C97.7387426,67.4596854 97.1989705,66.9186652 97.1989705,66.251218 C97.1989705,65.5833348 97.7387426,65.0418787 98.4036793,65.0418787 L98.4036793,65.0418787 Z M104.911802,65.2838337 C105.577173,65.2838337 106.116945,65.8252899 106.116945,66.4927371 C106.116945,67.1606202 105.577173,67.7012045 104.911802,67.7012045 C104.245996,67.7012045 103.706658,67.1606202 103.706658,66.4927371 C103.706658,65.8252899 104.245996,65.2838337 104.911802,65.2838337 L104.911802,65.2838337 Z M135.142084,58.3979236 L70.8566118,58.3979236 C70.5902025,58.3979236 70.3737722,58.6141573 70.3737722,58.8813978 L70.3737722,135.298216 C70.3737722,135.565456 70.5902025,135.78169 70.8566118,135.78169 L135.142084,135.78169 C135.408928,135.78169 135.624489,135.565456 135.624489,135.298216 L135.624489,58.8813978 C135.624489,58.6141573 135.408928,58.3979236 135.142084,58.3979236 L135.142084,58.3979236 Z" id="Dryer" fill="#F8F8F7"></path>
            </g>
            <text id="LintCI" sketch:type="MSTextLayer" font-family="ABeeZee" font-size="193" font-weight="normal">
                <tspan x="229" y="177.723" fill="#183152">Lint</tspan>
                <tspan x="566.75" y="177.723" fill="#375D81">CI</tspan>
            </text>
        </g>
    </g>
</svg>