<?xml version="1.0" encoding="UTF-8" standalone="no"?>
<svg width="474px" height="445px" viewBox="0 0 474 445" version="1.1" xmlns="http://www.w3.org/2000/svg" xmlns:xlink="http://www.w3.org/1999/xlink" xmlns:sketch="http://www.bohemiancoding.com/sketch/ns">
    <!-- Generator: Sketch 3.0.4 (8054) - http://www.bohemiancoding.com/sketch -->
    <title>Slice 2</title>
    <desc>Created with Sketch.</desc>
    <defs></defs>
    <g id="Page-1" stroke="none" stroke-width="1" fill="none" fill-rule="evenodd" sketch:type="MSPage">
        <g id="lintci-logo-vert" sketch:type="MSLayerGroup">
            <g id="Page-1" sketch:type="MSShapeGroup">
                <g id="lintci-logo">
                    <path d="M357.666,388.585 C375.935,386.021 383.621,368.155 381.193,334.792 C364.978,345.521 343.439,365.378 357.666,388.585" id="Fill-4" fill="#375D81"></path>
                    <path d="M274.417,53.763 C293.273,58.497 322.462,61.007 330.001,34.849 C315.785,23.091 297.412,29.466 274.417,53.763" id="Fill-5" fill="#375D81"></path>
                    <path d="M313.025,25.218 C307.626,-1.464 278.333,-1.329 259.156,1.866 C280.105,27.942 297.902,35.784 313.025,25.218" id="Fill-6" fill="#375D81"></path>
                    <path d="M30.787,224.931 C57.638,220.454 58.505,191.169 55.972,171.894 C29.193,191.938 20.744,209.454 30.787,224.931" id="Fill-7" fill="#375D81"></path>
                    <path d="M360.019,44.495 C363.656,17.517 335.933,8.05 316.767,4.786 C328.021,36.286 342.269,49.524 360.019,44.495" id="Fill-8" fill="#375D81"></path>
                    <path d="M308.429,406.513 C326.591,409.741 339.441,395.144 347.488,362.677 C328.746,367.843 302.107,380.034 308.429,406.513" id="Fill-9" fill="#375D81"></path>
                    <path d="M44.57,132.11 C69.523,142.991 86.212,118.913 94.593,101.372 C61.214,103.581 44.585,113.661 44.57,132.11" id="Fill-10" fill="#375D81"></path>
                    <path d="M70.642,135.618 C38.628,145.317 24.708,158.897 28.865,176.872 C55.632,181.827 66.445,154.599 70.642,135.618" id="Fill-11" fill="#375D81"></path>
                    <path d="M165.568,406.513 C171.89,380.034 145.25,367.843 126.507,362.677 C134.556,395.144 147.406,409.741 165.568,406.513" id="Fill-12" fill="#375D81"></path>
                    <path d="M116.332,388.585 C130.558,365.378 109.019,345.521 92.804,334.792 C90.376,368.155 98.06,386.021 116.332,388.585" id="Fill-13" fill="#375D81"></path>
                    <path d="M426.013,112.894 C443.117,91.714 424.324,69.241 409.632,56.511 C402.916,89.28 408.228,107.987 426.013,112.894" id="Fill-14" fill="#375D81"></path>
                    <path d="M429.427,132.11 C429.412,113.661 412.781,103.581 379.402,101.372 C387.785,118.913 404.474,142.991 429.427,132.11" id="Fill-15" fill="#375D81"></path>
                    <path d="M403.355,135.618 C407.552,154.599 418.365,181.827 445.132,176.872 C449.289,158.897 435.369,145.317 403.355,135.618" id="Fill-16" fill="#375D81"></path>
                    <path d="M397.062,74.831 C408.666,50.204 385.087,32.819 367.796,23.931 C369.029,57.358 378.623,74.274 397.062,74.831" id="Fill-17" fill="#375D81"></path>
                    <path d="M402.884,300.487 C390.066,315.106 374.517,339.935 394.355,358.577 C411.302,351.29 414.009,332.032 402.884,300.487" id="Fill-18" fill="#375D81"></path>
                    <path d="M450.986,254.323 C477.425,247.839 476.089,218.575 472.113,199.544 C446.916,221.546 439.81,239.649 450.986,254.323" id="Fill-19" fill="#375D81"></path>
                    <path d="M420.882,216.923 C416.927,235.956 415.617,265.224 442.062,271.685 C453.224,256.993 446.101,238.901 420.882,216.923" id="Fill-20" fill="#375D81"></path>
                    <path d="M443.21,224.931 C453.251,209.454 444.804,191.938 418.021,171.894 C415.49,191.169 416.359,220.454 443.21,224.931" id="Fill-21" fill="#375D81"></path>
                    <path d="M372.904,59.153 C363.322,43.39 343.875,43.396 314.193,58.819 C330.457,69.47 357.214,81.399 372.904,59.153" id="Fill-22" fill="#375D81"></path>
                    <path d="M349.05,74.673 C361.347,89.731 383.261,109.175 404.929,92.692 C400.544,74.772 382.001,68.917 349.05,74.673" id="Fill-23" fill="#375D81"></path>
                    <path d="M450.822,206.96 C476.705,198.522 473.199,169.44 467.818,150.759 C444.326,174.571 438.585,193.151 450.822,206.96" id="Fill-24" fill="#375D81"></path>
                    <path d="M446.152,157.38 C467.603,140.618 454.378,114.478 442.945,98.755 C428.992,129.155 429.937,148.579 446.152,157.38" id="Fill-25" fill="#375D81"></path>
                    <path d="M422.876,317.681 C438.113,307.28 437.082,287.862 420.117,259.032 C410.337,275.839 399.833,303.187 422.876,317.681" id="Fill-26" fill="#375D81"></path>
                    <path d="M327.947,406.532 C345.785,427.097 371.214,412.552 386.33,400.327 C355.255,387.95 335.906,389.89 327.947,406.532" id="Fill-27" fill="#375D81"></path>
                    <path d="M165.865,381.089 C179.044,411.835 194.082,424.165 211.484,418.048 C213.451,390.897 185.195,383.161 165.865,381.089" id="Fill-28" fill="#375D81"></path>
                    <path d="M146.05,406.532 C138.091,389.89 118.742,387.95 87.667,400.327 C102.785,412.552 128.212,427.097 146.05,406.532" id="Fill-29" fill="#375D81"></path>
                    <path d="M133.605,424.513 C150.498,434.138 177.941,444.39 192.228,421.218 C181.687,406.075 162.279,407.282 133.605,424.513" id="Fill-30" fill="#375D81"></path>
                    <path d="M44.193,358.528 C54.771,374.841 74.431,396.56 97.769,382.548 C95.371,364.257 77.576,356.405 44.193,358.528" id="Fill-31" fill="#375D81"></path>
                    <path d="M63.328,347.864 C65.83,329.585 50.732,317.327 17.97,310.585 C23.878,329.106 37.123,355.235 63.328,347.864" id="Fill-32" fill="#375D81"></path>
                    <path d="M37.16,304.042 C43.117,286.581 30.652,271.659 -0.213,258.761 C2.037,278.073 10.029,306.255 37.16,304.042" id="Fill-33" fill="#375D81"></path>
                    <path d="M236.998,416.343 C225.222,416.343 215.671,422.755 215.671,430.671 C215.671,438.583 225.222,444.999 236.998,444.999 C248.773,444.999 258.322,438.583 258.322,430.671 C258.322,422.755 248.773,416.343 236.998,416.343" id="Fill-34" fill="#375D81"></path>
                    <path d="M23.007,254.323 C34.187,239.649 27.082,221.546 1.884,199.544 C-2.092,218.575 -3.43,247.839 23.007,254.323" id="Fill-35" fill="#375D81"></path>
                    <path d="M436.837,304.042 C463.968,306.255 471.962,278.073 474.21,258.761 C443.345,271.659 430.878,286.581 436.837,304.042" id="Fill-36" fill="#375D81"></path>
                    <path d="M376.226,382.548 C399.566,396.56 419.226,374.841 429.804,358.528 C396.419,356.405 378.626,364.257 376.226,382.548" id="Fill-37" fill="#375D81"></path>
                    <path d="M410.667,347.864 C436.875,355.235 450.119,329.106 456.029,310.585 C423.265,317.327 408.167,329.585 410.667,347.864" id="Fill-38" fill="#375D81"></path>
                    <path d="M31.935,271.685 C58.38,265.224 57.07,235.956 53.113,216.923 C27.896,238.901 20.771,256.993 31.935,271.685" id="Fill-39" fill="#375D81"></path>
                    <path d="M308.132,381.089 C288.8,383.161 260.544,390.897 262.511,418.048 C279.916,424.165 294.951,411.835 308.132,381.089" id="Fill-40" fill="#375D81"></path>
                    <path d="M281.769,421.218 C296.058,444.39 323.5,434.138 340.392,424.513 C311.718,407.282 292.31,406.075 281.769,421.218" id="Fill-41" fill="#375D81"></path>
                    <path d="M214.837,1.866 C195.664,-1.329 166.369,-1.464 160.972,25.218 C176.095,35.784 193.892,27.942 214.837,1.866" id="Fill-42" fill="#375D81"></path>
                    <path d="M157.228,4.786 C138.064,8.05 110.339,17.517 113.978,44.495 C131.728,49.524 145.974,36.286 157.228,4.786" id="Fill-43" fill="#375D81"></path>
                    <path d="M101.091,59.153 C116.781,81.399 143.541,69.47 159.806,58.819 C130.121,43.396 110.675,43.39 101.091,59.153" id="Fill-44" fill="#375D81"></path>
                    <path d="M199.58,53.763 C176.583,29.466 158.212,23.091 143.996,34.849 C151.535,61.007 180.722,58.497 199.58,53.763" id="Fill-45" fill="#375D81"></path>
                    <path d="M51.121,317.681 C74.164,303.187 63.658,275.839 53.88,259.032 C36.914,287.862 35.882,307.28 51.121,317.681" id="Fill-46" fill="#375D81"></path>
                    <path d="M79.642,358.577 C99.48,339.935 83.929,315.106 71.113,300.487 C59.986,332.032 62.695,351.29 79.642,358.577" id="Fill-47" fill="#375D81"></path>
                    <path d="M23.175,206.96 C35.412,193.151 29.669,174.571 6.179,150.759 C0.8,169.44 -2.708,198.522 23.175,206.96" id="Fill-48" fill="#375D81"></path>
                    <path d="M27.845,157.38 C44.058,148.579 45.005,129.155 31.052,98.755 C19.619,114.478 6.394,140.618 27.845,157.38" id="Fill-49" fill="#375D81"></path>
                    <path d="M64.365,56.511 C49.673,69.241 30.878,91.714 47.984,112.894 C65.767,107.987 71.083,89.28 64.365,56.511" id="Fill-50" fill="#375D81"></path>
                    <path d="M106.201,23.931 C88.91,32.819 65.33,50.204 76.935,74.831 C95.375,74.274 104.966,57.358 106.201,23.931" id="Fill-51" fill="#375D81"></path>
                    <path d="M124.947,74.673 C91.996,68.917 73.451,74.772 69.068,92.692 C90.736,109.175 112.65,89.731 124.947,74.673" id="Fill-52" fill="#375D81"></path>
                    <path d="M399.548,222.706 C399.548,312.48 326.773,385.255 236.998,385.255 C147.224,385.255 74.449,312.48 74.449,222.706 C74.449,132.933 147.224,60.155 236.998,60.155 C326.773,60.155 399.548,132.933 399.548,222.706" id="Fill-53" fill="#375D81"></path>
                    <path d="M240.732,384.966 L163.884,308.119 L208.265,254.204 C178.1,217.851 199.759,181.081 236.507,181.081 C244.845,181.081 253.96,182.974 263.422,187.194 L306.623,134.71 L399.242,227.079 C396.836,313.4 327.136,382.896 240.732,384.966" id="Fill-54" fill="#183152"></path>
                    <path d="M267.815,232.892 C263.532,245.815 251.341,255.168 236.999,255.168 C219.099,255.168 204.537,240.605 204.537,222.706 C204.537,204.808 219.099,190.245 236.999,190.245 C250.677,190.245 262.398,198.753 267.168,210.751 C263.636,211.931 261.088,215.259 261.088,219.187 L261.088,224.271 C261.088,228.436 263.952,231.921 267.815,232.892 L267.815,232.892 L267.815,232.892 Z M236.999,264.124 C214.124,264.124 195.58,245.581 195.58,222.706 C195.58,199.831 214.124,181.288 236.999,181.288 C255.489,181.288 271.149,193.405 276.473,210.132 L273.999,210.132 C268.75,194.732 254.152,183.62 236.999,183.62 C215.446,183.62 197.912,201.153 197.912,222.706 C197.912,244.259 215.446,261.792 236.999,261.792 C254.152,261.792 268.75,250.68 273.999,235.278 L276.473,235.278 C271.149,252.007 255.489,264.124 236.999,264.124 L236.999,264.124 L236.999,264.124 Z M179.125,154.47 L179.125,151.511 C179.125,150.897 179.623,150.401 180.234,150.401 L206.121,150.401 C206.733,150.401 207.231,150.897 207.231,151.511 L207.231,154.47 C207.231,155.083 206.733,155.578 206.121,155.578 L180.234,155.578 C179.623,155.578 179.125,155.083 179.125,154.47 L179.125,154.47 L179.125,154.47 Z M226.424,149.194 C227.957,149.194 229.199,150.436 229.199,151.968 C229.199,153.499 227.957,154.74 226.424,154.74 C224.894,154.74 223.652,153.499 223.652,151.968 C223.652,150.436 224.894,149.194 226.424,149.194 L226.424,149.194 L226.424,149.194 Z M241.399,149.749 C242.93,149.749 244.172,150.991 244.172,152.522 C244.172,154.054 242.93,155.294 241.399,155.294 C239.867,155.294 238.626,154.054 238.626,152.522 C238.626,150.991 239.867,149.749 241.399,149.749 L241.399,149.749 L241.399,149.749 Z M310.958,133.954 L163.039,133.954 C162.426,133.954 161.928,134.45 161.928,135.063 L161.928,310.349 C161.928,310.962 162.426,311.458 163.039,311.458 L310.958,311.458 C311.572,311.458 312.068,310.962 312.068,310.349 L312.068,135.063 C312.068,134.45 311.572,133.954 310.958,133.954 L310.958,133.954 L310.958,133.954 Z" id="Fill-55" fill="#F8F8F7"></path>
                </g>
            </g>
        </g>
    </g>
</svg>